<svg xmlns="http://www.w3.org/2000/svg" width="19.975" height="20" viewBox="0 0 19.975 20">
  <g id="_002-dribble" data-name="002-dribble" transform="translate(-0.328)">
    <path id="Path_4" data-name="Path 4" d="M12.023,37.8a25.525,25.525,0,0,0,2.785-.726,23.712,23.712,0,0,0-4.365-5.77,10.026,10.026,0,0,0-5.072,6.671A17.215,17.215,0,0,0,12.023,37.8Z" transform="translate(-4.846 -30.079)" fill="#eb383f"/>
    <path id="Path_5" data-name="Path 5" d="M174.385,2.345l-.164.644c-.257,1.03-2.434,2.5-5.29,3.57L168.8,6.6a24.908,24.908,0,0,0-4.33-5.9A9.736,9.736,0,0,1,168.03,0a9.967,9.967,0,0,1,5.981,2.04A3.043,3.043,0,0,1,174.385,2.345Z" transform="translate(-157.724)" fill="#eb383f"/>
    <path id="Path_6" data-name="Path 6" d="M11.519,208.622q-.456-1.246-1.018-2.423a25.382,25.382,0,0,1-3.09.819,21.955,21.955,0,0,1-4.26.445,15.315,15.315,0,0,1-2.813-.246c-.023.3,0,.609,0,.925A9.951,9.951,0,0,0,3.935,215.8l.035-.211C4.415,212.894,7.528,210.05,11.519,208.622Z" transform="translate(0 -198.129)" fill="#eb383f"/>
    <path id="Path_7" data-name="Path 7" d="M129.315,296.5a28.073,28.073,0,0,1,1.287,7.974,9.788,9.788,0,0,1-8.052-1.046,2.45,2.45,0,0,1-.012-.878C122.9,300.338,125.8,297.775,129.315,296.5Z" transform="translate(-117.4 -284.906)" fill="#eb383f"/>
    <path id="Path_8" data-name="Path 8" d="M332.438,275.507a10,10,0,0,1-5.832,7.666,29.126,29.126,0,0,0-1.334-7.853A11.171,11.171,0,0,1,332.438,275.507Z" transform="translate(-312.24 -264.078)" fill="#eb383f"/>
    <path id="Path_9" data-name="Path 9" d="M297.947,90.519v.211a12.3,12.3,0,0,0-7.646-.082c-.3-.843-.655-1.662-1.03-2.458,1.924-.722,5.514-2.385,6.016-4.389A9.93,9.93,0,0,1,297.947,90.519Z" transform="translate(-277.645 -80.525)" fill="#eb383f"/>
  </g>
</svg>
