<svg id="_004-github-character" data-name="004-github-character" xmlns="http://www.w3.org/2000/svg" width="23.636" height="20" viewBox="0 0 23.636 20">
  <path id="Path_10" data-name="Path 10" d="M21.7,42.026a7.5,7.5,0,0,0,.384-2.386,6.832,6.832,0,0,0-.725-3.1,6.185,6.185,0,0,0-2.685.554,14.825,14.825,0,0,0-2.656,1.719,16.838,16.838,0,0,0-3.977-.454,18.9,18.9,0,0,0-4.389.5A15.239,15.239,0,0,0,4.972,37.1a6.149,6.149,0,0,0-2.7-.561,6.83,6.83,0,0,0-.724,3.1,7.669,7.669,0,0,0,.383,2.415A8.351,8.351,0,0,0,0,47.679a10.534,10.534,0,0,0,.881,4.7A5.909,5.909,0,0,0,2.1,54.015a6.285,6.285,0,0,0,1.719,1.151,14.969,14.969,0,0,0,1.946.731,12.6,12.6,0,0,0,2.166.426q1.186.136,2.1.178t2.017.042q1.307,0,2.372-.064a20.892,20.892,0,0,0,2.436-.312,12.158,12.158,0,0,0,2.415-.675,7.691,7.691,0,0,0,2-1.221,5.729,5.729,0,0,0,1.5-1.889,10.747,10.747,0,0,0,.866-4.7A8.427,8.427,0,0,0,21.7,42.026ZM20,52.36a4.026,4.026,0,0,1-1.151,1.463,5.491,5.491,0,0,1-1.733.852,10.442,10.442,0,0,1-1.989.419,20.484,20.484,0,0,1-2.117.1H10.625a20.479,20.479,0,0,1-2.116-.1,10.441,10.441,0,0,1-1.989-.419,5.492,5.492,0,0,1-1.733-.852A4.024,4.024,0,0,1,3.636,52.36a4.915,4.915,0,0,1-.455-2.18,4.415,4.415,0,0,1,.98-2.9,3.256,3.256,0,0,1,2.656-1.193,27.309,27.309,0,0,1,2.77.3,14.631,14.631,0,0,0,2.23.156,14.61,14.61,0,0,0,2.23-.156q2.188-.3,2.77-.3a3.257,3.257,0,0,1,2.656,1.193,4.416,4.416,0,0,1,.98,2.9A4.917,4.917,0,0,1,20,52.36Z" transform="translate(0 -36.543)" fill="#3e7be6"/>
  <path id="Path_11" data-name="Path 11" d="M112.461,256.288a1.331,1.331,0,0,0-2.048,0,2.781,2.781,0,0,0-.607,1.073,3.887,3.887,0,0,0,0,2.317,2.773,2.773,0,0,0,.607,1.073,1.331,1.331,0,0,0,2.048,0,2.777,2.777,0,0,0,.607-1.073,3.887,3.887,0,0,0,0-2.317A2.782,2.782,0,0,0,112.461,256.288Z" transform="translate(-104.169 -244.876)" fill="#3e7be6"/>
  <path id="Path_12" data-name="Path 12" d="M295.188,256.288a1.331,1.331,0,0,0-2.048,0,2.778,2.778,0,0,0-.607,1.073,3.882,3.882,0,0,0,0,2.317,2.775,2.775,0,0,0,.607,1.073,1.331,1.331,0,0,0,2.048,0,2.782,2.782,0,0,0,.607-1.073,3.889,3.889,0,0,0,0-2.317A2.787,2.787,0,0,0,295.188,256.288Z" transform="translate(-277.796 -244.876)" fill="#3e7be6"/>
</svg>
