<svg xmlns="http://www.w3.org/2000/svg" width="24.08" height="24.111" viewBox="0 0 24.08 24.111">
  <g id="_002-dribble" data-name="002-dribble" transform="translate(-0.328)">
    <path id="Path_4" data-name="Path 4" d="M13.4,39.141a30.813,30.813,0,0,0,3.362-.876,28.623,28.623,0,0,0-5.27-6.965,12.1,12.1,0,0,0-6.122,8.053A20.78,20.78,0,0,0,13.4,39.141Z" transform="translate(-4.805 -29.826)" fill="#eb383f"/>
    <path id="Path_5" data-name="Path 5" d="M176.438,2.83l-.2.777c-.311,1.243-2.939,3.023-6.386,4.309l-.155.056a30.067,30.067,0,0,0-5.227-7.12A11.752,11.752,0,0,1,168.767,0a12.032,12.032,0,0,1,7.219,2.463A3.674,3.674,0,0,1,176.438,2.83Z" transform="translate(-156.414)" fill="#eb383f"/>
    <path id="Path_6" data-name="Path 6" d="M13.836,209.123q-.551-1.5-1.229-2.924a30.638,30.638,0,0,1-3.73.989,26.5,26.5,0,0,1-5.142.537,18.487,18.487,0,0,1-3.4-.3c-.028.367,0,.735,0,1.116a12.012,12.012,0,0,0,4.337,9.24l.042-.254C5.261,214.28,9.019,210.847,13.836,209.123Z" transform="translate(0 -196.489)" fill="#eb383f"/>
    <path id="Path_7" data-name="Path 7" d="M130.725,296.5a33.887,33.887,0,0,1,1.554,9.626,11.815,11.815,0,0,1-9.72-1.262,2.957,2.957,0,0,1-.014-1.06C122.983,301.133,126.487,298.039,130.725,296.5Z" transform="translate(-116.423 -282.536)" fill="#eb383f"/>
    <path id="Path_8" data-name="Path 8" d="M333.922,275.648a12.071,12.071,0,0,1-7.04,9.254,35.16,35.16,0,0,0-1.611-9.48A13.485,13.485,0,0,1,333.922,275.648Z" transform="translate(-309.64 -261.883)" fill="#eb383f"/>
    <path id="Path_9" data-name="Path 9" d="M299.744,91.91v.254a14.849,14.849,0,0,0-9.23-.1c-.367-1.017-.791-2.006-1.243-2.967,2.322-.872,6.656-2.879,7.262-5.3A11.987,11.987,0,0,1,299.744,91.91Z" transform="translate(-275.336 -79.855)" fill="#eb383f"/>
  </g>
</svg>
