<svg xmlns="http://www.w3.org/2000/svg" width="24.164" height="20.446" viewBox="0 0 24.164 20.446">
  <g id="_004-github-character" data-name="004-github-character" transform="translate(0 0)">
    <path id="Path_10" data-name="Path 10" d="M22.188,42.148a7.665,7.665,0,0,0,.392-2.44,6.984,6.984,0,0,0-.741-3.166,6.323,6.323,0,0,0-2.745.566,15.156,15.156,0,0,0-2.715,1.757,17.213,17.213,0,0,0-4.066-.465,19.317,19.317,0,0,0-4.487.508,15.579,15.579,0,0,0-2.744-1.793,6.286,6.286,0,0,0-2.759-.574,6.983,6.983,0,0,0-.741,3.166,7.84,7.84,0,0,0,.392,2.469A8.537,8.537,0,0,0,0,47.928a10.769,10.769,0,0,0,.9,4.807A6.041,6.041,0,0,0,2.149,54.4a6.425,6.425,0,0,0,1.757,1.176,15.3,15.3,0,0,0,1.99.748,12.886,12.886,0,0,0,2.215.435q1.213.139,2.142.182t2.062.043q1.336,0,2.425-.065a21.358,21.358,0,0,0,2.49-.319,12.429,12.429,0,0,0,2.469-.69,7.863,7.863,0,0,0,2.048-1.249,5.857,5.857,0,0,0,1.532-1.932,10.987,10.987,0,0,0,.886-4.807A8.615,8.615,0,0,0,22.188,42.148ZM20.446,52.713a4.116,4.116,0,0,1-1.176,1.5,5.613,5.613,0,0,1-1.772.872,10.676,10.676,0,0,1-2.033.428,20.942,20.942,0,0,1-2.164.1h-2.44a20.936,20.936,0,0,1-2.164-.1,10.674,10.674,0,0,1-2.033-.428,5.614,5.614,0,0,1-1.771-.872,4.114,4.114,0,0,1-1.176-1.5,5.024,5.024,0,0,1-.465-2.229,4.514,4.514,0,0,1,1-2.962A3.329,3.329,0,0,1,6.97,46.3a27.918,27.918,0,0,1,2.832.3,14.957,14.957,0,0,0,2.28.16,14.936,14.936,0,0,0,2.28-.16q2.237-.305,2.832-.3a3.329,3.329,0,0,1,2.715,1.22,4.514,4.514,0,0,1,1,2.962A5.027,5.027,0,0,1,20.446,52.713Z" transform="translate(0 -36.543)" fill="#3e7be6"/>
    <path id="Path_11" data-name="Path 11" d="M112.541,256.3a1.369,1.369,0,0,0-2.106,0,2.859,2.859,0,0,0-.624,1.1,4,4,0,0,0,0,2.382,2.851,2.851,0,0,0,.624,1.1,1.369,1.369,0,0,0,2.106,0,2.856,2.856,0,0,0,.624-1.1,4,4,0,0,0,0-2.382A2.86,2.86,0,0,0,112.541,256.3Z" transform="translate(-104.053 -244.656)" fill="#3e7be6"/>
    <path id="Path_12" data-name="Path 12" d="M295.268,256.3a1.369,1.369,0,0,0-2.106,0,2.856,2.856,0,0,0-.624,1.1,3.991,3.991,0,0,0,0,2.382,2.855,2.855,0,0,0,.624,1.1,1.369,1.369,0,0,0,2.106,0,2.861,2.861,0,0,0,.625-1.1,4,4,0,0,0,0-2.382A2.866,2.866,0,0,0,295.268,256.3Z" transform="translate(-277.486 -244.656)" fill="#3e7be6"/>
  </g>
</svg>
